<?xml version="1.0" encoding="UTF-8"?>
<svg id="Layer_1" data-name="Layer 1" xmlns="http://www.w3.org/2000/svg" viewBox="0 0 278.1861 171.1914">
  <defs>
    <style>
      .cls-1 {
        fill: none;
      }

      .cls-2 {
        font-family: Helvetica, Helvetica;
        font-size: 19.297px;
      }

      .cls-2, .cls-3 {
        fill: #fff;
      }

      .cls-4 {
        fill: #fefefe;
      }

      .cls-5 {
        fill: #ee3225;
      }
    </style>
  </defs>
  <g>
    <text class="cls-2" transform="translate(47.0197 131.1756)"><tspan x="0" y="0">Платеж в один клик</tspan></text>
    <g>
      <rect class="cls-5" x="76.5641" y="30.3206" width="126.6192" height="64.6975" rx="32.3487" ry="32.3487"/>
      <circle class="cls-4" cx="108.7208" cy="62.6693" r="12.9563"/>
      <path class="cls-5" d="M110.1017,53.85h-3l-4.5599,12.08h2.4801l.8899-2.41h4.8301l.77,2.41h2.48l-3.8901-12.08ZM106.7018,61.49l1.8201-4.85,1.5599,4.85h-3.38Z"/>
      <rect class="cls-5" x="102.6552" y="69.1657" width="11.7409" height="2.4248"/>
      <g>
        <path class="cls-3" d="M126.9197,73.1769v-19.3986h8.8403c1.7728,0,3.3063.2865,4.5998.8592s2.2868,1.3994,2.979,2.48c.6932,1.081,1.0393,2.3515,1.0393,3.8105,0,1.4965-.3461,2.7759-1.0393,3.8382-.6922,1.0627-1.6855,1.8844-2.979,2.4664s-2.827.8732-4.5998.8732h-5.8201l2.4669-2.411v7.4822h-5.4871ZM132.4068,66.3321l-2.4669-2.5775h5.4871c1.1453,0,2.0044-.2443,2.5775-.7344.5722-.4892.8592-1.1865.8592-2.0921,0-.8681-.287-1.5561-.8592-2.0645-.5731-.5079-1.4323-.7621-2.5775-.7621h-5.4871l2.4669-2.5217v10.7524Z"/>
        <path class="cls-3" d="M142.6709,73.1769l8.5636-19.3986h5.4036l8.5908,19.3986h-5.7085l-6.7065-16.7104h2.1611l-6.7065,16.7104h-5.5978ZM147.3542,69.3805l1.4135-4.0183h9.4782l1.4126,4.0183h-12.3043Z"/>
        <path class="cls-3" d="M169.0722,73.1769v-8.203l1.2747,3.2979-8.7015-14.4935h5.8192l6.2356,10.5029h-3.326l6.291-10.5029h5.3211l-8.619,14.4935,1.1922-3.2979v8.203h-5.4871Z"/>
      </g>
    </g>
  </g>
  <rect class="cls-1" width="278.1861" height="171.1914"/>
</svg>