<?xml version="1.0" encoding="UTF-8"?>
<svg id="Layer_1" data-name="Layer 1" xmlns="http://www.w3.org/2000/svg" viewBox="0 0 278.1861 171.1914">
  <defs>
    <style>
      .cls-1 {
        fill: none;
      }

      .cls-2 {
        fill: #ffc93f;
      }

      .cls-3 {
        fill: #7b61ff;
      }
    </style>
  </defs>
  <rect class="cls-1" width="278.1861" height="171.1914"/>
  <g>
    <path class="cls-2" d="M44.9446,57.1165c5.0148,0,8.9667,1.2938,11.8551,3.8815,2.9086,2.5676,4.3628,5.9376,4.3628,10.1099,0,4.1924-1.4542,7.5624-4.3628,10.1098-2.8884,2.5476-6.8403,3.8214-11.8551,3.8214h-7.4018v9.7187l4.6939.9026v5.2656h-18.1436v-5.2656l4.6638-.9026v-31.443l-4.6638-.9027v-5.2956h20.8516ZM37.5428,78.2691h7.4018c2.4472,0,4.2928-.662,5.5364-1.986,1.2638-1.3438,1.8956-3.0489,1.8956-5.115,0-2.1062-.6318-3.8414-1.8956-5.2054-1.2436-1.3841-3.0892-2.0761-5.5364-2.0761h-7.4018v14.3826Z"/>
    <path class="cls-2" d="M84.5718,100.9261c-.2406-.5416-.4512-1.0932-.6318-1.655-.1806-.5816-.321-1.1634-.4212-1.745-1.043,1.2034-2.3168,2.1764-3.8212,2.9186-1.4844.7422-3.1894,1.1132-5.1152,1.1132-3.1894,0-5.7268-.8626-7.6125-2.5876-1.8656-1.7452-2.7982-4.1122-2.7982-7.1011,0-3.049,1.2236-5.4058,3.6708-7.0709,2.4472-1.665,6.0379-2.4974,10.7719-2.4974h4.4832v-3.1894c0-1.5646-.4514-2.7782-1.354-3.6406-.9028-.8626-2.2366-1.294-4.0018-1.294-1.003,0-1.8956.1204-2.678.3612-.7822.2206-1.4142.4914-1.8956.8124l-.5716,3.4902h-6.6197l.0302-7.2213c1.6046-1.0832,3.44-1.9959,5.5062-2.7381,2.0862-.7422,4.3528-1.1133,6.8001-1.1133,4.032,0,7.3017.9929,9.8091,2.9788,2.5274,1.9658,3.7912,4.7741,3.7912,8.4249v14.8639c.02.4414.0602.8626.1202,1.2638l2.678.361v5.2656h-10.1401ZM76.9593,95.0586c1.324,0,2.5274-.2808,3.6106-.8424,1.0832-.5818,1.9258-1.3038,2.5276-2.1664v-4.9646h-4.4832c-1.8656,0-3.2798.4412-4.2426,1.3238-.9628.8626-1.4442,1.9056-1.4442,3.1292,0,1.1034.351,1.9658,1.053,2.5876.7222.622,1.7152.9328,2.9788.9328Z"/>
    <path class="cls-2" d="M130.939,73.6654l-3.039.4514-11.9753,31.6837c-.9428,2.3468-2.2066,4.3126-3.7912,5.8972-1.5646,1.5848-3.9316,2.3772-7.1011,2.3772-.7422,0-1.4442-.0602-2.1062-.1806-.642-.1204-1.4042-.2908-2.2868-.5116l1.023-6.4089c.2808.04.5718.0802.8726.1204.301.04.5616.0602.7824.0602,1.4642,0,2.5876-.3612,3.3698-1.0832.7824-.7022,1.3842-1.5848,1.8054-2.6478l.993-2.4674-10.3205-26.8092-3.039-.4814v-5.2957h15.9471v5.2957l-3.6408.6018,4.4532,12.9983.4512,2.347.1806.03,5.1452-15.3753-3.6708-.6018v-5.2957h15.9471v5.2957Z"/>
    <path class="cls-3" d="M154.348,57.1165c5.0148,0,8.9665,1.2938,11.8551,3.8815,2.9086,2.5676,4.3628,5.9376,4.3628,10.1099,0,4.1924-1.4542,7.5624-4.3628,10.1098-2.8886,2.5476-6.8403,3.8214-11.8551,3.8214h-7.4019v9.7187l4.6938.9026v5.2656h-18.1436v-5.2656l4.6636-.9026v-31.443l-4.6636-.9027v-5.2956h20.8516ZM146.9461,78.2691h7.4019c2.4472,0,4.2926-.662,5.5365-1.986,1.2636-1.3438,1.8956-3.0489,1.8956-5.115,0-2.1062-.632-3.8414-1.8956-5.2054-1.2438-1.3841-3.0892-2.0761-5.5365-2.0761h-7.4019v14.3826Z"/>
    <path class="cls-3" d="M173.1837,84.3469c0-4.8542,1.354-8.8261,4.062-11.9152,2.728-3.1092,6.4891-4.6638,11.2833-4.6638,4.8142,0,8.5753,1.5446,11.2833,4.6337,2.728,3.0892,4.092,7.0708,4.092,11.9452v.632c0,4.8944-1.364,8.8863-4.092,11.9753-2.708,3.069-6.4491,4.6036-11.2231,4.6036-4.8344,0-8.6155-1.5346-11.3435-4.6036-2.708-3.089-4.062-7.0809-4.062-11.9753v-.632ZM181.9696,84.9789c0,2.9686.5216,5.3558,1.5646,7.1611,1.0432,1.7854,2.728,2.678,5.055,2.678,2.2666,0,3.9216-.9028,4.9646-2.708,1.0632-1.8054,1.5946-4.1824,1.5946-7.1311v-.632c0-2.8884-.5314-5.2454-1.5946-7.0709-1.0632-1.8254-2.738-2.738-5.0248-2.738s-3.9516.9126-4.9948,2.738c-1.043,1.8254-1.5646,4.1824-1.5646,7.0709v.632Z"/>
    <path class="cls-3" d="M208.3878,95.6604l4.2124-.9026v-20.1898l-4.6638-.9026v-5.2957h12.8479l.3912,4.7541c.7622-1.685,1.7452-2.9989,2.9492-3.9417s2.598-1.4142,4.182-1.4142c.462,0,.942.0401,1.444.1203.522.0602.952.1404,1.294.2407l-.932,8.0036-3.612-.0902c-1.284,0-2.346.2508-3.1888.7522-.8426.5014-1.4844,1.2136-1.9258,2.1364v15.8267l4.2126.9026v5.2656h-17.2109v-5.2656Z"/>
    <path class="cls-3" d="M247.353,60.3962v7.9736h5.7161v6.1683h-5.7161v16.5789c0,1.2638.26,2.1664.782,2.708.522.5416,1.224.8124,2.106.8124.602,0,1.124-.02,1.566-.0602.46-.0602.972-.1504,1.534-.2708l.752,6.3489c-.984.3008-1.956.5214-2.918.6618-.964.1606-2.006.2408-3.13.2408-3.028,0-5.366-.8324-7.0101-2.4974-1.626-1.6648-2.438-4.3026-2.438-7.9133v-16.6091h-4.784v-6.1683h4.784v-7.9736h8.7561Z"/>
  </g>
</svg>