<?xml version="1.0" encoding="UTF-8"?>
<svg id="Layer_1" data-name="Layer 1" xmlns="http://www.w3.org/2000/svg" xmlns:xlink="http://www.w3.org/1999/xlink" viewBox="0 0 278.1861 171.1914">
  <defs>
    <style>
      .cls-1 {
        fill: none;
      }

      .cls-2 {
        fill: url(#radial-gradient-4);
      }

      .cls-3 {
        fill: url(#radial-gradient-3);
      }

      .cls-4 {
        fill: url(#radial-gradient-2);
      }

      .cls-5 {
        fill: url(#radial-gradient);
      }

      .cls-6 {
        fill: url(#linear-gradient);
      }

      .cls-7 {
        fill: #ffd833;
      }

      .cls-8 {
        fill: #2196f3;
      }

      .cls-9 {
        fill: #f54182;
      }
    </style>
    <radialGradient id="radial-gradient" cx="-1142.8955" cy="694.1453" fx="-1142.8955" fy="694.1453" r="1.5432" gradientTransform="translate(-28773.7745 -23228.4837) rotate(-180) scale(25.2323 -33.5863)" gradientUnits="userSpaceOnUse">
      <stop offset="0" stop-color="#ff8f50"/>
      <stop offset=".7375" stop-color="#ff4d7a"/>
      <stop offset="1" stop-color="#ff4182"/>
    </radialGradient>
    <radialGradient id="radial-gradient-2" cx="-1142.8955" cy="694.1453" fx="-1142.8955" fy="694.1453" r="1.5432" xlink:href="#radial-gradient"/>
    <radialGradient id="radial-gradient-3" cx="-1142.8955" fx="-1142.8955" r="1.5432" xlink:href="#radial-gradient"/>
    <radialGradient id="radial-gradient-4" cx="-1142.8955" fx="-1142.8955" r="1.5432" xlink:href="#radial-gradient"/>
    <linearGradient id="linear-gradient" x1="-499.1235" y1="1616.2672" x2="-498.9688" y2="1592.6567" gradientTransform="translate(564 1675.6171) scale(1 -1)" gradientUnits="userSpaceOnUse">
      <stop offset="0" stop-color="#ff4081"/>
      <stop offset="1" stop-color="#ffa73f"/>
    </linearGradient>
  </defs>
  <rect class="cls-1" width="278.1861" height="171.1914"/>
  <g>
    <path class="cls-7" d="M64.1084,94.2091c4.7979,0,8.6874-3.9,8.6874-8.7109s-3.8896-8.7107-8.6874-8.7107-8.6874,3.9-8.6874,8.7107,3.8896,8.7109,8.6874,8.7109Z"/>
    <path class="cls-9" d="M57.1399,77.8612c-2.5958-4.0132-4.213-8.5826-4.721-13.3388-3.9312-3.2848-10.1849-4.8979-18.7612-4.8393-.084,2.0842.0454,4.1717.3861,6.2295,1.755,9.573,9.6877,15.6794,19.0421,17.087l.8248.1057c.5213-2.0359,1.6475-3.8649,3.2292-5.2441Z"/>
    <path class="cls-5" d="M57.1399,77.8612c-2.5958-4.0132-4.213-8.5826-4.721-13.3388-3.9312-3.2848-10.1849-4.8979-18.7612-4.8393-.084,2.0842.0454,4.1717.3861,6.2295,1.755,9.573,9.6877,15.6794,19.0421,17.087l.8248.1057c.5213-2.0359,1.6475-3.8649,3.2292-5.2441Z"/>
    <path class="cls-9" d="M40.6434,98.2215c-2.4454,3.7541-4.0073,9.1155-4.686,16.084,3.4652.6001,7.0201.4197,10.4074-.5279,2.7416-.8288,5.2735-2.2391,7.4237-4.1354l.4913-.4927c3.4883-3.8104,5.8466-8.5214,6.8095-13.6027-1.5609-.4597-2.984-1.3001-4.1419-2.4461-4.8207,3.2641-10.4878,5.044-16.3042,5.1208Z"/>
    <path class="cls-4" d="M40.6434,98.2215c-2.4454,3.7541-4.0073,9.1155-4.686,16.084,3.4652.6001,7.0201.4197,10.4074-.5279,2.7416-.8288,5.2735-2.2391,7.4237-4.1354l.4913-.4927c3.4883-3.8104,5.8466-8.5214,6.8095-13.6027-1.5609-.4597-2.984-1.3001-4.1419-2.4461-4.8207,3.2641-10.4878,5.044-16.3042,5.1208Z"/>
    <path class="cls-9" d="M38.9406,79.8146c-.5628-.4589-1.1017-.9464-1.6146-1.4606-4.8729,1.5805-9.3749,4.1368-13.2329,7.514,1.9645,2.934,4.5616,5.3878,7.5993,7.1799,2.5036,1.4416,5.3124,2.2678,8.196,2.4107h.7722c5.2176-.0713,10.2977-1.6876,14.6019-4.6457-.8929-1.4981-1.3882-3.2004-1.4392-4.9449-5.4137-.6384-10.5554-2.7297-14.8827-6.0534Z"/>
    <path class="cls-3" d="M38.9406,79.8146c-.5628-.4589-1.1017-.9464-1.6146-1.4606-4.8729,1.5805-9.3749,4.1368-13.2329,7.514,1.9645,2.934,4.5616,5.3878,7.5993,7.1799,2.5036,1.4416,5.3124,2.2678,8.196,2.4107h.7722c5.2176-.0713,10.2977-1.6876,14.6019-4.6457-.8929-1.4981-1.3882-3.2004-1.4392-4.9449-5.4137-.6384-10.5554-2.7297-14.8827-6.0534Z"/>
    <path class="cls-9" d="M73.3484,107.134c0-.3136-.0881-.6099-.141-.906-.7188-4.0747-2.1774-7.9877-4.3053-11.5505-1.4427.7457-3.0473,1.1342-4.6756,1.1324h-.1941c-1.074,5.5508-3.7025,10.6931-7.587,14.8433v.1045c.8705,4.4135,3.5288,9.2973,7.9752,14.6516,1.5376-1.154,2.9667-2.4425,4.2698-3.8502,1.1723-1.2779,2.1527-2.7154,2.9113-4.2682,1.55-3.1524,2.1561-6.6761,1.7467-10.1568Z"/>
    <path class="cls-2" d="M73.3484,107.134c0-.3136-.0881-.6099-.141-.906-.7188-4.0747-2.1774-7.9877-4.3053-11.5505-1.4427.7457-3.0473,1.1342-4.6756,1.1324h-.1941c-1.074,5.5508-3.7025,10.6931-7.587,14.8433v.1045c.8705,4.4135,3.5288,9.2973,7.9752,14.6516,1.5376-1.154,2.9667-2.4425,4.2698-3.8502,1.1723-1.2779,2.1527-2.7154,2.9113-4.2682,1.55-3.1524,2.1561-6.6761,1.7467-10.1568Z"/>
    <path class="cls-6" d="M69.7255,76.502c2.6465-4.0829,4.1431-8.2967,4.4895-12.6413v-.1668c.0576-.5301.086-1.0632.0849-1.5966-.0349-3.1056-.8736-6.149-2.4342-8.8331-1.5618-2.7961-3.8795-5.2901-6.9531-7.482h-.0196c-3.08,2.181-5.4032,4.6761-6.9693,7.4853-1.5608,2.6841-2.3993,5.7275-2.4342,8.8331-.0011.5335.0272,1.0665.0849,1.5966v.167c.3333,4.1897,1.7404,8.2584,4.2215,12.2062,1.5492-.8029,3.2815-1.1853,5.0244-1.1089,1.7427.0764,3.4351.6086,4.9085,1.5439l-.0034-.0032Z"/>
    <path class="cls-8" d="M99.7304,100.1527c0,.4872-.1574.8886-.4724,1.2038-.315.3153-.7157.473-1.2024.473s-.8875-.1577-1.2024-.473c-.3148-.3153-.4724-.7166-.4724-1.2038v-30.2253c0-.4872.1576-.8884.4724-1.2038.315-.3153.7157-.4728,1.2024-.4728h8.5887c2.0899,0,3.9508.4728,5.5827,1.4188,1.6604.9173,2.9487,2.207,3.8649,3.8695.916,1.6338,1.3742,3.5112,1.3742,5.6323,0,2.0924-.4582,3.9554-1.3742,5.5894-.9162,1.6338-2.2044,2.9092-3.8649,3.8264-1.6319.9173-3.4928,1.3759-5.5827,1.3759h-6.9139v10.1897ZM106.6442,86.7384c1.4601,0,2.7627-.3153,3.9079-.946,1.145-.6592,2.0327-1.5621,2.6624-2.7086.6585-1.1466.9876-2.4507.9876-3.9125,0-1.4904-.3292-2.809-.9876-3.9554-.6298-1.1753-1.5174-2.0924-2.6624-2.7516-1.1452-.6592-2.4478-.9889-3.9079-.9889h-6.9139v15.263h6.9139Z"/>
    <path class="cls-8" d="M122.933,79.988c0-.4872.1574-.8886.4724-1.2038.3148-.3153.7157-.4728,1.2024-.4728s.8731.1576,1.1594.4728c.315.3153.4724.7166.4724,1.2038v20.1644c0,.4873-.1574.8886-.4724,1.204-.2863.3153-.6728.4728-1.1594.4728s-.8876-.1576-1.2024-.4728c-.315-.3154-.4724-.7166-.4724-1.204v-20.1644ZM124.6078,69.1534c.6298,0,1.1737.215,1.6318.6449.458.4301.6872.9889.6872,1.6768,0,.6592-.2292,1.2182-.6872,1.6768-.458.4586-1.0163.6879-1.6748.6879s-1.2166-.2293-1.6748-.6879c-.4295-.4586-.6441-1.0176-.6441-1.6768,0-.6879.229-1.2467.6872-1.6768.458-.4299,1.0163-.6449,1.6748-.6449Z"/>
    <path class="cls-8" d="M145.3517,78.0964c2.2331,0,4.2514.5302,6.0551,1.5909,1.8322,1.0318,3.2636,2.4649,4.2942,4.2994,1.0594,1.8344,1.589,3.8695,1.589,6.1052v10.1036c0,.4586-.1576.8457-.4724,1.1609-.315.3153-.7157.473-1.2024.473s-.8875-.1434-1.2024-.4299c-.315-.3154-.4724-.7166-.4724-1.204v-2.5796c-1.002,1.3757-2.276,2.4649-3.822,3.2675-1.5459.7739-3.2493,1.1609-5.1102,1.1609-2.1759,0-4.1513-.516-5.9262-1.5478-1.7462-1.0606-3.1348-2.4938-4.1655-4.2994-1.002-1.8345-1.503-3.8696-1.503-6.1052s.5154-4.2709,1.5459-6.1052c1.0594-1.8345,2.4908-3.2677,4.2943-4.2994,1.8324-1.0606,3.865-1.5909,6.098-1.5909ZM145.3517,99.0347c1.6319,0,3.1062-.387,4.4232-1.1609s2.3475-1.8344,3.0919-3.1815c.773-1.3757,1.1595-2.9093,1.1595-4.6003s-.3866-3.2103-1.1595-4.5574c-.7444-1.3759-1.775-2.4507-3.0919-3.2246-1.3169-.8026-2.7913-1.2038-4.4232-1.2038s-3.1206.4012-4.4661,1.2038c-1.3169.7739-2.3618,1.8487-3.1348,3.2246-.7444,1.3472-1.1166,2.8663-1.1166,4.5574s.3722,3.2246,1.1166,4.6003c.773,1.3472,1.8179,2.4077,3.1348,3.1815,1.3455.7739,2.8342,1.1609,4.4661,1.1609Z"/>
    <path class="cls-8" d="M171.8372,78.0964c1.8895,0,3.5357.3296,4.9385.9889,1.4029.6305,2.5339,1.5191,3.3919,2.6657.2299.3727.3441.7023.3441.9889,0,.4873-.2284.8742-.6867,1.1608-.2006.1434-.4722.2151-.8163.2151-.6011,0-1.1021-.2151-1.5029-.645-1.4029-1.605-3.3209-2.4077-5.7545-2.4077-1.5745,0-2.8342.3296-3.7789.9889-.9447.6305-1.4172,1.4331-1.4172,2.4077,0,1.0319.4438,1.8632,1.3313,2.4938.8875.602,2.4621,1.0892,4.7238,1.4618,3.0633.5159,5.2534,1.3614,6.5697,2.5367,1.3179,1.1466,1.9753,2.5797,1.9753,4.2994,0,1.3185-.3997,2.4938-1.2021,3.5255-.7731,1.0319-1.8604,1.8345-3.2632,2.4077-1.4029.5733-2.9917.86-4.7668.86s-3.4783-.3011-5.1102-.9029c-1.6318-.602-2.9487-1.4475-3.9508-2.5367-.2863-.344-.4293-.6736-.4293-.9889,0-.4873.229-.9173.687-1.2899.3435-.2579.7014-.3869,1.0736-.3869.4867,0,.9018.2006,1.2453.6018.6872.8026,1.589,1.4189,2.7055,1.8489,1.1452.4299,2.4047.6449,3.7789.6449,2.0041,0,3.5072-.344,4.5091-1.0319s1.5172-1.5907,1.5459-2.7086c0-1.0319-.5011-1.8918-1.503-2.5797-1.002-.6879-2.5908-1.2038-4.7667-1.5478-2.8056-.4586-4.9099-1.2469-6.3126-2.3648-1.3742-1.1464-2.0614-2.5223-2.0614-4.1275,0-2.0924.8017-3.7118,2.4049-4.8584,1.6319-1.1464,3.6646-1.7197,6.098-1.7197Z"/>
    <path class="cls-8" d="M197.2196,98.5188c.4583,0,.8302.1577,1.1173.473.2855.3153.429.7165.429,1.2038,0,.4586-.1713.8455-.5154,1.1608-.3441.3154-.7731.473-1.2885.473h-.9012c-1.5169,0-2.878-.3583-4.0801-1.0748-1.2021-.7452-2.1465-1.7341-2.8348-2.9666-.6574-1.2612-.9876-2.68-.9876-4.2565v-11.4795h-2.79c-.4583,0-.8302-.129-1.1173-.387-.2577-.2866-.3858-.6305-.3858-1.0319,0-.4299.1281-.7739.3858-1.0318.287-.2867.6589-.4299,1.1173-.4299h2.79v-6.6642c0-.4873.1435-.8886.4305-1.2038.3148-.3154.716-.473,1.2021-.473s.8873.1576,1.2021.473c.3148.3153.4722.7165.4722,1.2038v6.6642h4.8533c.4583,0,.8148.1432,1.0725.4299.287.2579.4305.6018.4305,1.0318,0,.4014-.1435.7453-.4305,1.0319-.2577.258-.6142.387-1.0725.387h-4.8533v11.4795c0,1.4618.429,2.6657,1.2885,3.6115.8595.9173,1.9614,1.3759,3.307,1.3759h1.1589Z"/>
    <path class="cls-8" d="M214.7561,78.0535c1.2021,0,2.1465.1576,2.8333.4728.716.3153,1.074.7595,1.074,1.3328,0,.1721-.0139.3011-.0432.387-.1142.4012-.3009.6736-.5586.8168-.2284.1434-.5571.215-.9876.215-.2577,0-.7006-.0285-1.3302-.086-.2299-.0287-.5725-.0429-1.0308-.0429-2.1481,0-3.9073.5731-5.2823,1.7197-1.3456,1.1466-2.0185,2.637-2.0185,4.4715v12.8554c0,.5159-.1435.9171-.429,1.2038-.287.2866-.6867.4299-1.2021.4299s-.9166-.1434-1.2037-.4299c-.2855-.2867-.429-.6879-.429-1.2038v-20.2505c0-.5159.1435-.9171.429-1.2038.287-.2866.6883-.4299,1.2037-.4299s.9151.1434,1.2021.4299c.2855.2867.429.6879.429,1.2038v1.8918c.8302-1.2038,1.8904-2.1353,3.1774-2.7945,1.2886-.6592,2.6774-.9889,4.1666-.9889Z"/>
    <path class="cls-8" d="M224.5043,79.988c0-.4872.1574-.8886.4722-1.2038.3148-.3153.7145-.4728,1.2021-.4728.4861,0,.8734.1576,1.1589.4728.3148.3153.4722.7166.4722,1.2038v20.1644c0,.4873-.1574.8886-.4722,1.204-.2855.3153-.6728.4728-1.1589.4728-.4876,0-.8873-.1576-1.2021-.4728-.3148-.3154-.4722-.7166-.4722-1.204v-20.1644ZM226.1787,69.1534c.6296,0,1.1728.215,1.6311.6449.4583.4301.6883.9889.6883,1.6768,0,.6592-.2299,1.2182-.6883,1.6768-.4583.4586-1.0154.6879-1.6743.6879s-1.216-.2293-1.6743-.6879c-.4306-.4586-.645-1.0176-.645-1.6768,0-.6879.2299-1.2467.6883-1.6768.4568-.4299,1.0154-.6449,1.6743-.6449Z"/>
    <path class="cls-8" d="M253.6208,99.2498c.3148.4012.4722.7882.4722,1.1609,0,.4012-.1574.7452-.4722,1.0318-.2855.258-.6157.387-.9876.387-.3441,0-.6296-.0574-.858-.1721-.2299-.1147-.4444-.3153-.645-.6018l-7.043-8.9859-7.2992,9.2437c-.2577.344-.645.516-1.1605.516-.4583,0-.8302-.1434-1.1157-.4299-.2577-.2867-.3873-.6307-.3873-1.0319,0-.4586.1435-.8455.4306-1.1609l7.4288-9.2868-7.043-8.9428c-.287-.3153-.429-.7023-.429-1.1609,0-.4299.1281-.7882.3858-1.0748.2577-.2866.6296-.4299,1.1173-.4299.4861,0,.9012.1719,1.2453.5159l6.9134,8.8999,6.8285-8.6419c.3997-.5159.8719-.7739,1.4166-.7739.4583,0,.8163.1434,1.074.4299.2855.2866.429.6305.429,1.0319,0,.4299-.1574.8455-.4722,1.2467l-7.1295,8.857,7.3007,9.3727Z"/>
  </g>
</svg>