<?xml version="1.0" encoding="UTF-8"?>
<svg id="Layer_1" data-name="Layer 1" xmlns="http://www.w3.org/2000/svg" xmlns:xlink="http://www.w3.org/1999/xlink" viewBox="0 0 278.1861 171.1914">
  <defs>
    <style>
      .cls-1 {
        fill: none;
      }

      .cls-2 {
        mask: url(#mask);
      }

      .cls-3 {
        fill: #5b57a2;
      }

      .cls-4 {
        fill: #017f36;
      }

      .cls-5 {
        fill-rule: evenodd;
      }

      .cls-5, .cls-6 {
        fill: #fff;
      }

      .cls-7 {
        fill: #63b22f;
      }

      .cls-8 {
        fill: #984995;
      }

      .cls-9 {
        mask: url(#mask-1);
      }

      .cls-10 {
        fill: #d90751;
      }

      .cls-11 {
        fill: #ed6f26;
      }

      .cls-12 {
        fill: #1487c9;
      }

      .cls-13 {
        fill: #fab718;
      }
    </style>
    <mask id="mask" x="26.5013" y="6.2315" width="225.628" height="158.709" maskUnits="userSpaceOnUse">
      <g id="mask0_2503_7061" data-name="mask0 2503 7061">
        <path class="cls-6" d="M252.1293,6.2315H26.5013v158.709h225.628V6.2315Z"/>
      </g>
    </mask>
    <mask id="mask-1" x="39.0834" y="27.5243" width="234.2185" height="116.1428" maskUnits="userSpaceOnUse">
      <g id="mask1_2503_7061" data-name="mask1 2503 7061">
        <path class="cls-6" d="M273.3019,27.5243H39.0834v116.1415h234.2185V27.5243Z"/>
      </g>
    </mask>
  </defs>
  <rect class="cls-1" width="278.1861" height="171.1914"/>
  <g class="cls-2">
    <g class="cls-9">
      <g>
        <path class="cls-6" d="M239.1027,56.5314v28.3946h-10.1393v-19.9183h-9.7627v19.9183h-10.138v-28.3965h30.04v.0019Z"/>
        <path class="cls-5" d="M188.239,85.9417c9.077,0,15.8171-5.5656,15.8171-14.0021,0-8.1657-4.9735-13.4672-13.2839-13.4672-3.8356,0-7,1.3499-9.3847,3.6793.5703-4.8148,4.6406-8.3302,9.1247-8.3302,1.0345,0,8.8237-.0164,8.8237-.0164l4.4045-8.429s-9.7799.2225-14.325.2225c-10.3873.181-17.4033,9.6222-17.4033,21.0894,0,13.3591,6.8436,19.2536,16.2269,19.2536ZM188.2947,65.938c3.3701,0,5.7056,2.2145,5.7056,6.0007,0,3.4077-2.0756,6.2157-5.7056,6.2234-3.4722,0-5.8091-2.6017-5.8091-6.1652,0-3.7872,2.3369-6.0589,5.8091-6.0589Z"/>
        <path class="cls-6" d="M163.7587,75.4195s-2.3939,1.38-5.9705,1.6415c-4.1117.1219-7.7746-2.4751-7.7746-7.0885,0-4.5004,3.2325-7.0799,7.6707-7.0799,2.7215,0,6.3223,1.8865,6.3223,1.8865,0,0,2.634-4.8346,3.9987-7.252-2.4987-1.8943-5.8263-2.9326-9.6985-2.9326-9.7704,0-17.3378,6.3705-17.3378,15.3208,0,9.0649,7.1122,15.2874,17.3378,15.0996,2.8576-.1068,6.8006-1.1102,9.2038-2.6541l-3.752-6.9412Z"/>
        <path class="cls-3" d="M39.0834,52.8042l14.0647,25.1401v15.3343l-14.0483,25.0904-.0164-65.5648Z"/>
        <path class="cls-10" d="M93.0861,68.7963l13.1791-8.0774,26.9719-.0253-40.1511,24.5969v-16.4941Z"/>
        <path class="cls-13" d="M93.0115,52.6564l.0748,33.2842-14.0977-8.6621V27.5243l14.0229,25.1321Z"/>
        <path class="cls-11" d="M133.2373,60.6936l-26.9729.0247-13.2529-8.0619-14.0229-25.1321,54.2486,33.1693Z"/>
        <path class="cls-7" d="M93.0863,118.5081v-16.1481l-14.0977-8.4977.0078,49.8035,14.0899-25.1577Z"/>
        <path class="cls-12" d="M106.2327,110.5044l-53.0855-32.5602-14.0638-25.1401,94.097,57.6672-26.9477.033Z"/>
        <path class="cls-4" d="M78.9971,143.6671l14.0879-25.1576,13.1461-8.0042,26.9481-.033-54.1821,33.1948Z"/>
        <path class="cls-8" d="M39.1002,118.3683l40.0042-24.506-13.4494-8.2517-12.5065,7.6669-14.0483,25.0908Z"/>
        <path class="cls-6" d="M153.5736,97.9343v9.208h-1.7803v-7.7873h-4.3811v7.7873h-1.7803v-9.208h7.9416ZM157.3259,102.5726c0,2.2592,1.2493,3.2858,2.584,3.2858,1.37,0,2.6021-1.0436,2.6021-3.2858,0-2.2763-1.2321-3.3029-2.6021-3.3029-1.3346,0-2.584.9753-2.584,3.3029ZM159.9099,97.7635c2.191,0,4.4841,1.4716,4.4841,4.8091,0,3.3203-2.2931,4.7919-4.4841,4.7919-2.1731,0-4.4666-1.4716-4.4666-4.7919,0-3.3374,2.2935-4.8091,4.4666-4.8091ZM178.3118,107.1424h-1.7799v-4.0051h-4.4841v4.0051h-1.7799v-9.208h1.7799v3.7828h4.4841v-3.7828h1.7799v9.208ZM182.0625,102.5726c0,2.2592,1.2493,3.2858,2.5836,3.2858,1.37,0,2.6021-1.0436,2.6021-3.2858,0-2.2763-1.2321-3.3029-2.6021-3.3029-1.3342,0-2.5836.9753-2.5836,3.3029ZM184.6461,97.7635c2.191,0,4.4841,1.4716,4.4841,4.8091,0,3.3203-2.2931,4.7919-4.4841,4.7919-2.1738,0-4.4669-1.4716-4.4669-4.7919,0-3.3374,2.2931-4.8091,4.4669-4.8091ZM201.5017,97.9343v9.208h-1.7122v-7.3424l-2.8754,7.3424h-1.3342l-2.8754-7.2739v7.2739h-1.7122v-9.208h2.6539l2.6525,6.8459,2.5504-6.8459h2.6525ZM207.8624,105.8414c1.3011,0,2.0186-.5304,2.4125-1.4032h1.7971c-.4098,1.5231-1.8143,2.9263-4.1419,2.9263-2.9602,0-4.5862-2.1732-4.5862-4.8434,0-2.858,1.9165-4.7576,4.5359-4.7576,2.8409,0,4.5014,2.3276,4.313,5.3223h-7.0173c.1883,1.712,1.2321,2.7556,2.687,2.7556ZM207.8624,99.2182c-1.3873,0-2.3966.7016-2.6525,2.4645h5.134c-.0517-1.3519-1.0265-2.4645-2.4814-2.4645ZM213.9553,97.9343h1.7798v1.3523c.565-.9584,1.5066-1.5231,2.8754-1.5231,2.1393,0,3.9709,1.7797,3.9709,4.7921s-1.8316,4.8089-3.9709,4.8089c-1.3687,0-2.3103-.5647-2.8754-1.5231v4.2957h-1.7798v-12.2027ZM215.6662,102.5556c0,2.2761,1.1645,3.3203,2.5332,3.3203,1.4894,0,2.4815-1.2495,2.4815-3.3203s-.9921-3.3035-2.4815-3.3035c-1.3687,0-2.5332,1.0272-2.5332,3.3035ZM224.5774,110.1371h-.8554v-1.4202h.7016c.9589,0,1.3687-.0859,1.8143-1.3863l.069-.2052-3.321-9.191h1.9682l2.2242,6.8634,2.1737-6.8634h1.8488l-3.252,9.4132c-.7706,2.1738-1.2838,2.7895-3.3714,2.7895ZM152.8715,116.3378h-3.2345v7.7872h-1.7797v-7.7872h-3.252v-1.4208h8.2662v1.4208ZM157.8218,122.8242c1.3003,0,2.0191-.5304,2.413-1.4033h1.7971c-.4098,1.5232-1.8143,2.9264-4.1417,2.9264-2.9609,0-4.5864-2.1734-4.5864-4.8434,0-2.858,1.9166-4.7576,4.5353-4.7576,2.8413,0,4.5004,2.3276,4.3121,5.3223h-7.0162c.1883,1.7118,1.232,2.7556,2.6867,2.7556ZM157.8218,116.2009c-1.3863,0-2.396.7016-2.6527,2.4645h5.1346c-.0517-1.3519-1.0279-2.4645-2.482-2.4645ZM171.4961,114.9169v9.208h-1.7799v-7.7872h-2.8581l-.0849,1.7288c-.1883,3.8846-1.0093,6.0584-3.3886,6.0584h-.3249v-1.4207h.1883c1.0942,0,1.626-1.4032,1.813-4.9118l.1379-2.8755h6.2971ZM177.8609,122.8242c1.3011,0,2.0199-.5304,2.4138-1.4033h1.7971c-.4111,1.5232-1.8143,2.9264-4.1419,2.9264-2.9616,0-4.5876-2.1734-4.5876-4.8434,0-2.858,1.9178-4.7576,4.5358-4.7576,2.8422,0,4.5014,2.3276,4.313,5.3223h-7.0173c.1883,1.7118,1.2334,2.7556,2.687,2.7556ZM177.8609,116.2009c-1.386,0-2.3953.7016-2.6525,2.4645h5.1353c-.0517-1.3519-1.0279-2.4645-2.4828-2.4645ZM189.6687,111.7169v3.2175c2.2586,0,4.6035,1.4887,4.6035,4.6377,0,3.269-2.3608,4.6382-4.6035,4.6382v2.9094h-1.7109v-2.9094c-2.26,0-4.5358-1.3692-4.5358-4.6552,0-3.1491,2.2759-4.6207,4.5358-4.6207v-3.2175h1.7109ZM187.9578,122.7387v-6.3327c-1.3011,0-2.756.9759-2.756,3.2175,0,2.1909,1.4549,3.1151,2.756,3.1151ZM189.6687,116.4061v6.3327c1.3011,0,2.756-.9073,2.756-3.0976,0-2.2252-1.4549-3.235-2.756-3.235ZM197.5215,119.5552c0,2.2593,1.2493,3.286,2.5849,3.286,1.3687,0,2.6008-1.0438,2.6008-3.286,0-2.2761-1.2321-3.3028-2.6008-3.3028-1.3356,0-2.5849.9752-2.5849,3.3028ZM200.1064,114.7463c2.191,0,4.4841,1.4716,4.4841,4.8089,0,3.3204-2.2931,4.7921-4.4841,4.7921-2.1737,0-4.4669-1.4716-4.4669-4.7921,0-3.3373,2.2931-4.8089,4.4669-4.8089ZM214.4964,124.125h-1.7799v-4.0049h-4.4841v4.0049h-1.7798v-9.208h1.7798v3.7828h4.4841v-3.7828h1.7799v9.208ZM222.7312,120.4111v-.6676c-2.8581.2741-4.3648.6846-4.3648,1.8657,0,.8385.6499,1.3692,1.7454,1.3692,1.4549,0,2.6194-.7361,2.6194-2.5673ZM219.7193,124.3472c-1.8661,0-3.2865-1.0267-3.2865-2.7041,0-2.2417,2.6525-2.858,6.2123-3.2175v-.1882c0-1.626-.8554-2.1734-1.9854-2.1734-1.2321,0-1.9337.6158-2.0013,1.7629h-1.7984c.1379-1.9686,1.7639-3.1321,3.8687-3.1321,2.378,0,3.7308,1.1466,3.7136,3.9021,0,.2222-.0345,1.8142-.0345,2.2077,0,1.3863.0862,2.499.2573,3.3203h-1.7122c-.0676-.3595-.1021-.6162-.1538-1.2154-.5477.9413-1.5743,1.4377-3.0796,1.4377Z"/>
      </g>
    </g>
  </g>
</svg>