<?xml version="1.0" encoding="UTF-8"?>
<svg id="Layer_1" data-name="Layer 1" xmlns="http://www.w3.org/2000/svg" xmlns:xlink="http://www.w3.org/1999/xlink" viewBox="0 0 278.1861 171.1914">
  <defs>
    <style>
      .cls-1 {
        fill: none;
      }

      .cls-2 {
        mask: url(#mask);
      }

      .cls-3 {
        fill-rule: evenodd;
      }

      .cls-3, .cls-4, .cls-5 {
        fill: #fff;
      }

      .cls-6 {
        fill: url(#radial-gradient-3);
      }

      .cls-7 {
        fill: url(#radial-gradient-2);
      }

      .cls-8 {
        fill: url(#radial-gradient);
      }

      .cls-4 {
        font-family: Helvetica, Helvetica;
        font-size: 23.0834px;
      }

      .cls-9 {
        fill: #13dc20;
      }
    </style>
    <mask id="mask" x="67.3499" y="0" width="138.9531" height="132.1583" maskUnits="userSpaceOnUse">
      <g id="mask0_2543_219-2" data-name="mask0 2543 219">
        <path class="cls-5" d="M172.1335,29.6523h-70.6147c-18.871,0-34.1689,15.2979-34.1689,34.1689s15.2979,34.1688,34.1689,34.1688h70.6147c18.8714,0,34.1695-15.2979,34.1695-34.1688s-15.2981-34.1689-34.1695-34.1689Z"/>
      </g>
    </mask>
    <radialGradient id="radial-gradient" cx="-815.9684" cy="903.2926" fx="-815.9684" fy="903.2926" r="1.1766" gradientTransform="translate(7206.0633 -137702.3486) rotate(-135) scale(113.379 -113.379)" gradientUnits="userSpaceOnUse">
      <stop offset="0" stop-color="#3bdfb4"/>
      <stop offset="1" stop-color="#3bdfb4" stop-opacity="0"/>
    </radialGradient>
    <radialGradient id="radial-gradient-2" cx="-815.9141" cy="903.2611" fx="-815.9141" fy="903.2611" r="1.1766" gradientTransform="translate(7163.7585 -137215.8616) rotate(-135) scale(112.969 -112.969)" gradientUnits="userSpaceOnUse">
      <stop offset="0" stop-color="#19ccdc"/>
      <stop offset=".223" stop-color="#19ccdc" stop-opacity=".75"/>
      <stop offset="1" stop-color="#19ccdc" stop-opacity="0"/>
    </radialGradient>
    <radialGradient id="radial-gradient-3" cx="-828.7397" cy="924.0161" fx="-828.7397" fy="924.0161" r="1.1766" gradientTransform="translate(-5466.6275 101822.5865) rotate(45) scale(82.159 -82.159)" gradientUnits="userSpaceOnUse">
      <stop offset="0" stop-color="#f5ed01"/>
      <stop offset=".332" stop-color="#f5ed01" stop-opacity=".8"/>
      <stop offset="1" stop-color="#f5ed01" stop-opacity="0"/>
    </radialGradient>
  </defs>
  <rect class="cls-1" width="278.1861" height="171.1914"/>
  <g>
    <g id="mask0_2543_219" data-name="mask0 2543 219">
      <path class="cls-5" d="M172.1335,29.6523h-70.6147c-18.871,0-34.1689,15.2979-34.1689,34.1689s15.2979,34.1688,34.1689,34.1688h70.6147c18.8714,0,34.1695-15.2979,34.1695-34.1688s-15.2981-34.1689-34.1695-34.1689Z"/>
    </g>
    <g class="cls-2">
      <g>
        <path class="cls-5" d="M172.1335,29.6522h-70.6147c-18.871,0-34.1689,15.2979-34.1689,34.1688s15.2979,34.1689,34.1689,34.1689h70.6147c18.8714,0,34.1695-15.298,34.1695-34.1689s-15.2981-34.1688-34.1695-34.1688Z"/>
        <path class="cls-9" d="M136.8265,0c38.3707,0,69.4766,24.3112,69.4766,62.6821s-31.1056,69.4762-69.4763,69.4762-69.4768-31.1052-69.4768-69.4762S98.4555,0,136.8265,0Z"/>
        <path class="cls-8" d="M136.8265,0c38.3707,0,69.4766,24.3112,69.4766,62.6821s-31.1056,69.4762-69.4763,69.4762-69.4768-31.1052-69.4768-69.4762S98.4555,0,136.8265,0Z"/>
        <path class="cls-7" d="M136.8265,0c38.3707,0,69.4766,24.3112,69.4766,62.6821s-31.1056,69.4762-69.4763,69.4762-69.4768-31.1052-69.4768-69.4762S98.4555,0,136.8265,0Z"/>
        <path class="cls-6" d="M136.8265,0c38.3707,0,69.4766,24.3112,69.4766,62.6821s-31.1056,69.4762-69.4763,69.4762-69.4768-31.1052-69.4768-69.4762S98.4555,0,136.8265,0Z"/>
        <path class="cls-3" d="M96.7232,58.7918v5.1642l6.8445,4.293,16.3871-12.0616c-.5764-1.2716-1.3-2.4696-2.1586-3.5736l-14.2285,10.4711-6.8445-4.2931ZM117.3956,63.5797v-.368l3.8676-2.8458c.7558,4.1516.0287,8.4365-2.0558,12.1053-2.0833,3.6693-5.39,6.4895-9.3424,7.9674-3.9527,1.4778-8.2987,1.5193-12.2784.1172-3.9802-1.4022-7.3401-4.1585-9.4937-7.7873-2.1532-3.6292-2.9624-7.8995-2.286-12.0643.6762-4.1652,2.7952-7.96,5.9859-10.721,3.1909-2.7608,7.2508-4.3124,11.47-4.383,4.2189-.0712,8.3291,1.3435,11.6095,3.9961l-3.5112,2.576c-2.5545-1.7451-5.6198-2.5844-8.7068-2.3839-3.0869.2004-6.0181,1.4293-8.3253,3.4899-2.3069,2.0607-3.8576,4.8348-4.4042,7.8796-.5464,3.0448-.0573,6.1851,1.3894,8.9198,1.4466,2.7342,3.7674,4.9053,6.5921,6.1669,2.8245,1.2612,5.9901,1.5403,8.9918.7924,3.0016-.7477,5.6673-2.4794,7.57-4.9184,1.9027-2.4395,2.9324-5.4456,2.9276-8.539ZM139.417,67.0793v7.3352l-4.2024-.0039v-23.5386h7.8332c7.4338,0,10.5898,2.6577,10.5898,7.973,0,5.4788-3.6966,8.2343-10.5898,8.2343h-3.6308ZM139.417,54.7401v8.4717l3.9501-.0041c3.8998,0,5.9162-1.2756,5.9162-4.469,0-2.8946-1.7508-3.9986-5.8468-3.9986h-4.0195ZM161.8762,57.2626c-2.8941,0-4.914.6829-6.0226,1.5128l.0084,4.9065c1.1409-1.7786,2.9192-2.993,6.0142-2.993,2.2519,0,3.3988.7442,3.3988,3.132v.7362h-3.803c-4.1343,0-6.9231,1.0751-6.9231,4.9104,0,3.2914,2.0163,5.213,5.4091,5.213,2.6956,0,4.743-1.3493,5.549-3.2957v3.0259h3.7001v-11.0968c0-4.3707-2.4241-6.0512-7.3309-6.0512ZM165.2666,67.1163v1.3575c-.165,1.1612-1.4112,2.6741-4.0649,2.6741-1.7544,0-2.6944-.8097-2.6944-2.0853,0-1.5085,1.1122-1.9462,3.4347-1.9462h3.3246ZM171.1529,57.5978h4.3878l4.6078,11.5302,3.7623-11.5302h4.1701l-6.7234,18.5954c-1.4829,4.0314-2.991,4.9392-5.2118,4.9392-1.0476,0-2.1957-.3026-2.6908-.7363v-3.6717c.5418.5281,1.2641.8294,2.0211.8423,1.2055,0,2.1132-.8053,2.7506-3.0705l-7.0738-16.8984Z"/>
      </g>
    </g>
  </g>
  <text class="cls-4" transform="translate(24.1176 131.2334)"><tspan x="0" y="0">Пополнение в 1 клик</tspan></text>
</svg>