<?xml version="1.0" encoding="UTF-8"?>
<svg id="Layer_1" data-name="Layer 1" xmlns="http://www.w3.org/2000/svg" viewBox="0 0 278.1861 171.1914">
  <defs>
    <style>
      .cls-1 {
        fill: none;
      }

      .cls-2 {
        font-family: Helvetica, Helvetica;
        font-size: 23.0835px;
      }

      .cls-2, .cls-3 {
        fill: #fff;
      }

      .cls-4 {
        letter-spacing: 0em;
      }

      .cls-5 {
        fill: #333;
        fill-rule: evenodd;
      }

      .cls-6 {
        fill: #ffdd2d;
      }

      .cls-7 {
        letter-spacing: -.0176em;
      }

      .cls-8 {
        letter-spacing: -.0366em;
      }
    </style>
  </defs>
  <rect class="cls-1" width="278.1861" height="171.1914"/>
  <g>
    <g>
      <path d="M59.0025,62.6997c0-17.866,14.4831-32.3489,32.3489-32.3489h95.4828c17.8655,0,32.3494,14.4829,32.3494,32.3489s-14.4838,32.3486-32.3494,32.3486h-95.4828c-17.8659,0-32.3489-14.4827-32.3489-32.3486Z"/>
      <path class="cls-3" d="M141.4452,51.7929h-13.6566v21.8138h6.645v-5.8659h7.0116c1.6497,0,3.2537-.0458,4.8118-.5499,3.0246-.9622,5.2703-3.6661,5.2703-7.3323s-2.2-6.3242-5.1787-7.3783c-1.6497-.5957-3.2079-.6873-4.9034-.6873ZM134.4336,62.6081v-5.5452h6.0492c1.2832,0,2.0165.1376,2.6122.3668,1.054.4123,1.5582,1.3748,1.5582,2.383,0,1.0999-.5957,2.1539-1.7416,2.5204-.5499.1834-1.1914.275-2.4288.275h-6.0492Z"/>
      <path class="cls-3" d="M161.0545,65.6327l3.1628-8.7989h.5036l3.1628,8.7989h-6.8292ZM159.4061,70.4446h10.0805l1.2835,3.1621h7.4704l-8.937-21.8138h-9.7133l-8.9368,21.8138h7.5156l1.237-3.1621Z"/>
      <path class="cls-3" d="M194.4122,51.7929l-5.4069,9.9445h-.2297l-5.4536-9.9445h-7.7443l9.8521,16.0396v5.7741h6.8747v-6.324l9.3485-15.4897h-7.2407Z"/>
      <path class="cls-6" d="M73.704,45.0548h41.1712v20.7061c0,5.3081-2.8318,10.2133-7.4284,12.8676l-13.1572,7.5974-13.1572-7.5974c-4.5967-2.6543-7.4284-7.5595-7.4284-12.8676v-20.7061Z"/>
      <path class="cls-5" d="M85.0039,55.9541v6.4401c.8807-.9944,2.4818-1.6675,4.3126-1.6675h1.9894v7.4864c0,1.9917-.5412,3.7351-1.3442,4.6941h8.6539c-.8012-.96-1.3411-2.7011-1.3411-4.6904v-7.4901h1.9894c1.8308,0,3.432.6731,4.3126,1.6675v-6.4401h-18.5727Z"/>
    </g>
    <text class="cls-2" transform="translate(75.0725 131.1758)"><tspan class="cls-8" x="0" y="0">T</tspan><tspan class="cls-4" x="13.2549" y="0">inko</tspan><tspan class="cls-7" x="55.6006" y="0">f</tspan><tspan x="61.6084" y="0">f Банк</tspan></text>
  </g>
</svg>