<?xml version="1.0" encoding="UTF-8"?>
<svg id="Layer_1" data-name="Layer 1" xmlns="http://www.w3.org/2000/svg" viewBox="0 0 278.1861 171.1914">
  <defs>
    <style>
      .cls-1 {
        fill: none;
      }

      .cls-2 {
        font-family: Helvetica, Helvetica;
        font-size: 23.0834px;
      }

      .cls-2, .cls-3 {
        fill: #fff;
      }

      .cls-4 {
        fill: #333;
        fill-rule: evenodd;
      }

      .cls-5 {
        fill: #ffdd2d;
      }
    </style>
  </defs>
  <rect class="cls-1" width="278.1861" height="171.1914"/>
  <g>
    <g>
      <path d="M55.1586,62.4725c0-18.5343,15.025-33.559,33.559-33.559h99.0557c18.5318,0,33.5587,15.0247,33.5587,33.559s-15.0269,33.5589-33.5587,33.5589h-99.0557c-18.5342,0-33.559-15.0247-33.559-33.5589Z"/>
      <path class="cls-3" d="M140.6855,51.1575h-14.168v22.63h6.8938v-6.0853h7.2742c1.7118,0,3.3757-.0477,4.9918-.5706,3.1377-.9984,5.4679-3.8034,5.4679-7.6069s-2.2824-6.5606-5.3722-7.6542c-1.7118-.6178-3.3279-.7131-5.0875-.7131ZM133.4113,62.3775v-5.7526h6.2754c1.3314,0,2.0922.1425,2.7106.3802,1.0933.4279,1.6161,1.4264,1.6161,2.4722,0,1.1411-.6184,2.2345-1.8063,2.6148-.5706.1902-1.2369.2854-2.5204.2854h-6.2754Z"/>
      <path class="cls-3" d="M161.0307,65.5152l3.28-9.1281h.5227l3.2812,9.1281h-7.084ZM159.3201,70.5071h10.4585l1.3314,3.2804h7.7479l-9.2707-22.63h-10.0769l-9.2707,22.63h7.7969l1.2835-3.2804Z"/>
      <path class="cls-3" d="M195.6361,51.1573l-5.6102,10.3165h-.2381l-5.6581-10.3165h-8.0338l10.2217,16.6397v5.9901h7.1306v-6.5607l9.6977-16.0691h-7.5098Z"/>
      <path class="cls-5" d="M70.412,44.1676h42.7114v21.4808c0,5.5067-2.9379,10.5952-7.7063,13.3489l-13.6493,7.8818-13.6494-7.8818c-4.7687-2.7537-7.7064-7.8423-7.7064-13.3489v-21.4808Z"/>
      <path class="cls-4" d="M82.1336,55.4746v6.6809c.9135-1.0316,2.5746-1.7298,4.4738-1.7298h2.0639v7.7667c0,2.0662-.5615,3.8747-1.3944,4.8696h8.9776c-.8313-.9959-1.3914-2.8021-1.3914-4.8656v-7.7706h2.0641c1.8992,0,3.5603.6982,4.4738,1.7298v-6.6809h-19.2675Z"/>
    </g>
    <text class="cls-2" transform="translate(24.0933 131.176)"><tspan x="0" y="0">Пополнение в 1 клик</tspan></text>
  </g>
</svg>